:SAMPLES-PER-SECOND 24
:FULLY-SPECIFIED
:DEGREES
347
root  2.99018 38.5986 12.0037 123.543 20.7412 145.084
RightUpLeg  9.80019 2.08896 -29.3354
RightLeg  38.4647 11.1702 9.12021
RightFoot  1.99571 1.54537 -13.0212
RightToes  -1.74623e-010 0 -2.59999e-017
Spine  24.6203 1.85165 2.1808
Spine1  27.3307 12.9333 -24.9649
HEad  20.4046 12.8993 -1.33926
LeftShoulder1  2.75578 -5.53232 -24.2826
LeftArm  -38.4283 -26.3251 -18.1935
LeftForeArm  41.9061 -77.2698 -57.9483
LeftHand  -0.862689 2.45559 33.5728
RightShoulder  0.900999 2.97629 6.1032
RightArm  -49.109 66.9423 10.2802
RightForeArm  38.6953 66.8149 22.7504
RightHand  -0.82582 5.88991 -8.79555
LeftUpLeg  -63.6378 28.0217 4.48877
LeftLeg  18.1511 6.57241 1.97411
LeftFoot  -9.8968 0.238072 -12.9292
LeftToes  -6.27559e-011 -2.10356e-011 8.24929e-012
348
root  2.69055 38.3544 10.4345 116.932 19.7436 140.552
RightUpLeg  10.0752 -2.40785 -38.8957
RightLeg  44.4405 8.20791 8.23676
RightFoot  0.32076 1.47268 -14.3367
RightToes  -1.74623e-010 0 -2.59999e-017
Spine  30.1845 1.80374 -1.76452
Spine1  27.7484 12.8827 -25.3556
HEad  22.0816 13.7161 -2.31341
LeftShoulder1  2.63473 -4.99711 -24.8188
LeftArm  -47.5713 -22.43 -10.1173
LeftForeArm  92.138 -78.1083 -111.954
LeftHand  -0.808281 2.83106 36.0418
RightShoulder  0.514785 1.50322 2.12327
RightArm  -71.3941 64.8534 -5.64322
RightForeArm  59.7295 77.0307 47.0697
RightHand  -0.65736 2.76097 -9.59268
LeftUpLeg  -82.8335 32.9737 4.74271
LeftLeg  21.4135 2.64455 1.62558
LeftFoot  -4.11444 0.776681 -12.0602
LeftToes  -6.27559e-011 -2.10356e-011 8.24929e-012
349
root  2.44114 37.8815 8.71764 111.457 19.4353 136.926
RightUpLeg  9.79866 0.608749 -44.113
RightLeg  49.8252 6.08098 7.31437
RightFoot  -3.54535 0.8782 -13.1648
RightToes  -1.74623e-010 0 -2.59999e-017
Spine  35.921 1.82768 -6.20888
Spine1  25.4413 12.103 -25.1606
HEad  24.7732 16.1371 -3.61827
LeftShoulder1  2.76362 -4.5319 -28.3341
LeftArm  -54.467 -11.1621 -2.32024
LeftForeArm  121.741 -70.2167 -146.522
LeftHand  -0.718971 3.26962 38.645
RightShoulder  0.565666 1.45957 3.3732
RightArm  -81.2707 58.7649 -12.0309
RightForeArm  114.064 79.6743 108.196
RightHand  -0.601573 0.937975 -11.1458
LeftUpLeg  -101.96 36.9791 1.16455
LeftLeg  20.6005 3.26851 0.3161
LeftFoot  2.58307 1.40279 -11.5862
LeftToes  -6.27559e-011 -2.10356e-011 8.24929e-012
350
root  2.35517 37.6948 7.21509 107.648 20.0312 133.165
RightUpLeg  8.64661 7.40973 -44.9032
RightLeg  52.9269 3.29664 4.24035
RightFoot  -5.9264 0.454664 -10.494
RightToes  -1.74623e-010 0 -2.59999e-017
Spine  37.6478 3.25445 -8.75483
Spine1  23.5872 12.5638 -24.7237
HEad  27.7543 18.1936 -4.30988
LeftShoulder1  2.89649 -4.43841 -30.4505
LeftArm  -54.5965 -0.0508679 -1.20174
LeftForeArm  128.279 -63.3868 -156.311
LeftHand  -0.716652 3.34849 39.9997
RightShoulder  0.886329 2.2532 7.87673
RightArm  -81.6675 53.3533 -11.3384
RightForeArm  143.993 73.958 142.404
RightHand  -0.546726 0.021013 -11.771
LeftUpLeg  -101.075 43.3042 13.5212
LeftLeg  13.6661 16.6996 -4.13958
LeftFoot  12.8988 3.40262 -16.0293
LeftToes  -6.27559e-011 -2.10356e-011 8.24929e-012
351
root  2.48794 37.7741 6.54588 105.901 21.518 129.392
RightUpLeg  5.9889 7.49792 -44.3426
RightLeg  53.9809 -2.24283 -3.75181
RightFoot  -6.02608 0.394729 -9.32399
RightToes  -1.74623e-010 0 -2.59999e-017
Spine  33.5622 4.32126 -7.62375
Spine1  24.4488 15.069 -25.8543
HEad  31.9354 19.6102 -4.59588
LeftShoulder1  2.89313 -4.28892 -31.1145
LeftArm  -47.1369 6.94556 -3.79637
LeftForeArm  130.559 -61.6435 -158.035
LeftHand  -0.561267 3.70212 38.009
RightShoulder  1.35447 3.41002 12.5812
RightArm  -73.2565 54.4452 -5.12051
RightForeArm  150.417 69.9896 150.813
RightHand  -0.47686 -0.622224 -11.5909
LeftUpLeg  -92.2883 45.958 20.0697
LeftLeg  11.1374 14.7275 -4.92528
LeftFoot  25.4287 6.05986 -18.6446
LeftToes  -6.27559e-011 -2.10356e-011 8.24929e-012
352
root  2.91367 38.2477 6.22208 105.082 23.9101 126.287
RightUpLeg  6.90235 3.22211 -43.6732
RightLeg  48.7269 -8.34366 -10.293
RightFoot  -8.53213 0.18845 -10.0687
RightToes  -1.74623e-010 0 -2.59999e-017
Spine  25.6507 4.724 -2.34802
Spine1  26.6988 17.9221 -28.0356
HEad  36.9686 21.9137 -4.9081
LeftShoulder1  2.82439 -3.909 -32.0993
LeftArm  -37.0711 11.6812 -5.52293
LeftForeArm  130.545 -63.5803 -156.218
LeftHand  -0.315817 4.30307 33.5231
RightShoulder  1.79507 4.56428 15.5152
RightArm  -47.6029 57.9852 15.0597
RightForeArm  149.939 69.0743 152.008
RightHand  -0.417494 -0.0858885 -9.27689
LeftUpLeg  -71.979 44.464 28.9331
LeftLeg  8.22445 6.39136 -3.25597
LeftFoot  34.8117 6.72712 -16.2754
LeftToes  -6.27559e-011 -2.10356e-011 8.24929e-012
353
root  3.49557 38.8626 5.90034 105.093 25.9716 125.079
RightUpLeg  12.2986 1.63236 -43.0062
RightLeg  38.2767 -11.0807 -9.49528
RightFoot  -12.0747 -0.150248 -10.739
RightToes  -1.74623e-010 0 -2.59999e-017
Spine  17.2268 4.98098 3.47921
Spine1  27.4965 18.9582 -28.9665
HEad  40.7942 25.2215 -4.6489
LeftShoulder1  2.55588 -3.38661 -31.0735
LeftArm  -29.5372 19.6034 -8.25957
LeftForeArm  131.158 -64.1142 -155.76
LeftHand  -0.202986 4.57285 28.6865
RightShoulder  2.10782 5.2808 17.4237
RightArm  -14.9935 52.287 40.6509
RightForeArm  148.88 69.6664 151.015
RightHand  -0.150094 -0.291658 -3.40692
LeftUpLeg  -47.4651 36.328 36.0997
LeftLeg  1.46712 6.90574 -1.4265
LeftFoot  38.0011 7.13552 -16.0018
LeftToes  -6.27559e-011 -2.10356e-011 8.24929e-012
354
root  4.04056 39.442 5.47476 105.575 26.798 123.855
RightUpLeg  16.0049 1.82785 -43.6029
RightLeg  29.6102 -10.4767 -6.6049
RightFoot  -12.5617 -0.195873 -10.356
RightToes  -1.74623e-010 0 -2.59999e-017
Spine  9.5468 5.34258 6.27501
Spine1  25.5605 18.1962 -28.5947
HEad  41.7081 26.817 -4.18558
LeftShoulder1  2.15026 -2.84166 -27.8083
LeftArm  -26.0904 31.0219 -11.8245
LeftForeArm  134.746 -61.6132 -158.39
LeftHand  -0.280883 4.02189 23.5579
RightShoulder  2.18649 5.23321 18.5458
RightArm  3.56675 38.4206 52.2574
RightForeArm  150.441 69.1502 151.956
RightHand  -0.0044603 -1.48608 -0.00320456
LeftUpLeg  -29.3033 25.1005 33.7317
LeftLeg  -0.141813 7.9513 -0.77422
LeftFoot  38.803 7.56558 -16.6353
LeftToes  -6.27559e-011 -2.10356e-011 8.24929e-012
355
root  4.45863 39.9976 4.53735 105.201 28.061 120.913
RightUpLeg  15.9347 0.502637 -45.9546
RightLeg  25.261 -8.41807 -4.51888
RightFoot  -11.4396 -0.0851028 -9.93372
RightToes  -1.74623e-010 0 -2.59999e-017
Spine  2.92231 5.80828 9.21619
Spine1  22.1337 16.9221 -27.5245
HEad  40.1549 26.1453 -4.34491
LeftShoulder1  1.90717 -2.55206 -25.3253
LeftArm  -25.6695 38.5345 -13.147
LeftForeArm  137.948 -59.3899 -160.42
LeftHand  -0.355402 3.29219 19.3323
RightShoulder  2.04172 4.74648 18.24
RightArm  10.7681 21.6576 53.2441
RightForeArm  153.322 65.3035 156.798
RightHand  -0.08186 -1.57181 -2.16393
LeftUpLeg  -15.5059 15.2359 25.2309
LeftLeg  2.91307 3.63147 -1.16182
LeftFoot  38.4314 6.89895 -15.345
LeftToes  -6.27559e-011 -2.10356e-011 8.24929e-012
356
root  4.78992 40.2096 3.84498 104.343 31.2762 118.029
RightUpLeg  14.6254 -1.98948 -46.287
RightLeg  23.2945 -5.61938 -2.88457
RightFoot  -11.7573 -0.115959 -10.3768
RightToes  -1.74623e-010 0 -2.59999e-017
Spine  -1.65115 5.75696 13.2222
Spine1  19.309 15.6806 -26.2836
HEad  37.9673 26.7837 -3.63057
LeftShoulder1  1.75325 -2.3642 -23.6241
LeftArm  -27.1328 37.5487 -14.2938
LeftForeArm  138.433 -59.9124 -160.069
LeftHand  -0.312974 3.36583 17.5691
RightShoulder  1.89012 4.43919 17.2113
RightArm  13.8353 5.73892 50.3493
RightForeArm  156.382 59.1672 162.103
RightHand  -0.112158 -1.36334 -3.09607
LeftUpLeg  -3.54698 8.1945 15.1017
LeftLeg  4.96594 0.245751 -1.62958
LeftFoot  36.677 6.67054 -15.4479
LeftToes  -6.27559e-011 -2.10356e-011 8.24929e-012
357
root  4.97876 39.9627 3.56513 104.033 35.4155 116.077
RightUpLeg  11.8679 -6.30986 -45.2985
RightLeg  25.0559 -0.0182068 -0.234006
RightFoot  -14.2688 -0.392496 -11.5539
RightToes  -1.74623e-010 0 -2.59999e-017
Spine  -5.33673 5.05742 15.041
Spine1  18.7787 13.4742 -23.841
HEad  34.739 30.3121 -2.53723
LeftShoulder1  1.72508 -2.39419 -22.9632
LeftArm  -29.3931 31.6598 -15.1383
LeftForeArm  134.549 -61.9926 -158.059
LeftHand  -0.290054 3.51047 17.495
RightShoulder  1.87747 4.39734 17.1753
RightArm  16.2578 -3.07827 47.3719
RightForeArm  160.119 54.3213 165.258
RightHand  -0.0160374 -1.55623 -0.231911
LeftUpLeg  5.03681 5.14474 6.47154
LeftLeg  5.69401 -2.04449 -3.05686
LeftFoot  35.7782 6.61897 -15.642
LeftToes  -6.27559e-011 -2.10356e-011 8.24929e-012
358
root  4.89824 39.4199 3.48695 105.595 39.226 116.385
RightUpLeg  7.94693 -10.2936 -42.4414
RightLeg  30.5869 3.10314 1.71106
RightFoot  -17.1565 -0.773094 -12.8999
RightToes  -1.74623e-010 0 -2.59999e-017
Spine  -8.799 3.50782 13.5557
Spine1  21.0462 9.98655 -19.0367
HEad  29.7164 34.1912 -3.68199
LeftShoulder1  1.83586 -2.53708 -24.1672
LeftArm  -31.0855 25.1608 -14.9398
LeftForeArm  129.391 -63.8869 -155.825
LeftHand  -0.320375 3.40976 18.4098
RightShoulder  2.04114 4.43912 19.2732
RightArm  16.9789 -2.9879 44.9563
RightForeArm  161.145 52.7332 166.118
RightHand  0.041033 -1.60901 1.53947
LeftUpLeg  9.55428 2.87416 0.364991
LeftLeg  4.49552 1.29844 -4.21181
LeftFoot  35.1885 6.41454 -15.3853
LeftToes  -6.27559e-011 -2.10356e-011 8.24929e-012
359
root  4.69152 39.0865 3.73026 108.565 42.0882 118.896
RightUpLeg  6.10272 -12.041 -37.9567
RightLeg  32.8377 1.5728 0.850965
RightFoot  -18.3178 -0.96135 -13.6759
RightToes  -1.74623e-010 0 -2.59999e-017
Spine  -9.82129 2.0946 10.1928
Spine1  22.8617 6.68086 -13.5293
HEad  25.2486 36.4674 -5.62698
LeftShoulder1  1.94634 -2.65706 -25.4242
LeftArm  -30.7747 19.4977 -16.1005
LeftForeArm  129.909 -65.0806 -154.623
LeftHand  -0.331565 3.39072 18.9539
RightShoulder  2.3386 4.66766 22.4026
RightArm  16.1185 -0.305012 44.1806
RightForeArm  160.14 54.2587 165.287
RightHand  0.0240344 -1.62732 1.02891
LeftUpLeg  11.7739 1.30583 -3.08497
LeftLeg  3.2654 7.46637 -4.39484
LeftFoot  32.405 5.56574 -14.3149
LeftToes  -6.27559e-011 -2.10356e-011 8.24929e-012
360
root  4.4825 39.0889 4.22415 112.092 44.1859 121.793
RightUpLeg  5.99584 -13.5072 -33.4451
RightLeg  30.4601 -0.0312947 -0.264151
RightFoot  -18.0024 -0.972145 -14.5168
RightToes  -1.74623e-010 0 -2.59999e-017
Spine  -8.20919 2.10802 8.59534
Spine1  22.1682 6.03246 -11.4055
HEad  21.7169 37.9805 -6.63166
LeftShoulder1  2.05585 -2.89986 -25.9592
LeftArm  -29.1781 15.9245 -17.0216
LeftForeArm  135.569 -64.9634 -155.325
LeftHand  -0.253153 3.72624 17.083
RightShoulder  2.60204 5.00452 24.4826
RightArm  15.5467 1.71892 46.8423
RightForeArm  160.951 57.3779 163.643
RightHand  -0.00328681 -1.40351 0.120915
LeftUpLeg  11.7268 1.61811 -3.74362
LeftLeg  4.09363 10.3527 -4.12352
LeftFoot  29.0727 4.16819 -11.7854
LeftToes  -6.27559e-011 -2.10356e-011 8.24929e-012
361
root  4.27806 39.3844 4.90077 117.31 45.5423 125.46
RightUpLeg  5.98634 -14.2813 -28.3595
RightLeg  25.6811 -1.88941 -1.21506
RightFoot  -15.3331 -0.648846 -15.5504
RightToes  -1.74623e-010 0 -2.59999e-017
Spine  -6.14316 3.09583 9.45234
Spine1  20.7704 7.83669 -13.2402
HEad  16.0812 38.116 -8.08218
LeftShoulder1  2.06422 -2.98872 -25.6376
LeftArm  -28.0072 15.0273 -16.7359
LeftForeArm  140.237 -62.9343 -157.756
LeftHand  -0.17256 4.12817 14.9666
RightShoulder  2.71151 5.24341 24.9208
RightArm  15.8008 4.92399 50.4077
RightForeArm  161.442 59.4549 162.399
RightHand  -0.0602801 -0.974552 -1.46062
LeftUpLeg  8.65999 3.37695 -2.26767
LeftLeg  6.39096 9.58941 -3.13349
LeftFoot  28.1475 3.68718 -10.7476
LeftToes  -6.27559e-011 -2.10356e-011 8.24929e-012
